<svg class="lds-gear-set" width="200px"  height="200px"  xmlns="http://www.w3.org/2000/svg" xmlns:xlink="http://www.w3.org/1999/xlink" viewBox="0 0 100 100" preserveAspectRatio="xMidYMid" style="background: none;"><g transform="translate(50 50)"> <g transform="translate(-17 -17) scale(0.5)"> <g transform="rotate(282.731)">
<animateTransform attributeName="transform" type="rotate" values="0;360" keyTimes="0;1" dur="2.8s" begin="0s" repeatCount="indefinite"></animateTransform><path d="M37.3496987939662 -7 L46.3496987939662 -7 L46.3496987939662 7 L37.3496987939662 7 A38 38 0 0 1 34.33103782515145 16.29048316803467 L34.33103782515145 16.29048316803467 L41.61219077452598 21.580550438666926 L33.38319724243135 32.90678835991619 L26.10204429305682 27.616721089283935 A38 38 0 0 1 18.19908727618711 33.35855545903816 L18.19908727618711 33.35855545903816 L20.980240225561637 41.91806410569454 L7.665448997429484 46.24430202694381 L4.884296048054957 37.684793380287424 A38 38 0 0 1 -4.884296048054953 37.684793380287424 L-4.884296048054953 37.684793380287424 L-7.665448997429479 46.24430202694381 L-20.980240225561634 41.91806410569454 L-18.199087276187107 33.35855545903816 A38 38 0 0 1 -26.102044293056814 27.61672108928394 L-26.102044293056814 27.61672108928394 L-33.383197242431336 32.9067883599162 L-41.61219077452597 21.58055043866693 L-34.33103782515144 16.29048316803467 A38 38 0 0 1 -37.3496987939662 7.000000000000007 L-37.3496987939662 7.000000000000007 L-46.3496987939662 7.000000000000008 L-46.3496987939662 -6.9999999999999964 L-37.3496987939662 -6.999999999999997 A38 38 0 0 1 -34.33103782515145 -16.290483168034662 L-34.33103782515145 -16.290483168034662 L-41.61219077452598 -21.58055043866692 L-33.38319724243135 -32.906788359916185 L-26.102044293056824 -27.616721089283928 A38 38 0 0 1 -18.1990872761871 -33.358555459038165 L-18.1990872761871 -33.358555459038165 L-20.980240225561626 -41.91806410569455 L-7.6654489974295075 -46.24430202694381 L-4.8842960480549795 -37.684793380287424 A38 38 0 0 1 4.884296048054964 -37.684793380287424 L4.884296048054964 -37.684793380287424 L7.66544899742949 -46.24430202694381 L20.980240225561612 -41.91806410569455 L18.199087276187086 -33.358555459038165 A38 38 0 0 1 26.102044293056824 -27.616721089283928 L26.102044293056824 -27.616721089283928 L33.38319724243135 -32.90678835991619 L41.612190774525956 -21.58055043866695 L34.331037825151434 -16.29048316803469 A38 38 0 0 1 37.3496987939662 -6.999999999999995 M0 -20A20 20 0 1 0 0 20 A20 20 0 1 0 0 -20" fill="#1d3f72"></path></g></g> <g transform="translate(0 22) scale(0.4)"> <g transform="rotate(59.2694)">
<animateTransform attributeName="transform" type="rotate" values="360;0" keyTimes="0;1" dur="2.8s" begin="-0.13999999999999999s" repeatCount="indefinite"></animateTransform><path d="M37.3496987939662 -7 L46.3496987939662 -7 L46.3496987939662 7 L37.3496987939662 7 A38 38 0 0 1 34.33103782515145 16.29048316803467 L34.33103782515145 16.29048316803467 L41.61219077452598 21.580550438666926 L33.38319724243135 32.90678835991619 L26.10204429305682 27.616721089283935 A38 38 0 0 1 18.19908727618711 33.35855545903816 L18.19908727618711 33.35855545903816 L20.980240225561637 41.91806410569454 L7.665448997429484 46.24430202694381 L4.884296048054957 37.684793380287424 A38 38 0 0 1 -4.884296048054953 37.684793380287424 L-4.884296048054953 37.684793380287424 L-7.665448997429479 46.24430202694381 L-20.980240225561634 41.91806410569454 L-18.199087276187107 33.35855545903816 A38 38 0 0 1 -26.102044293056814 27.61672108928394 L-26.102044293056814 27.61672108928394 L-33.383197242431336 32.9067883599162 L-41.61219077452597 21.58055043866693 L-34.33103782515144 16.29048316803467 A38 38 0 0 1 -37.3496987939662 7.000000000000007 L-37.3496987939662 7.000000000000007 L-46.3496987939662 7.000000000000008 L-46.3496987939662 -6.9999999999999964 L-37.3496987939662 -6.999999999999997 A38 38 0 0 1 -34.33103782515145 -16.290483168034662 L-34.33103782515145 -16.290483168034662 L-41.61219077452598 -21.58055043866692 L-33.38319724243135 -32.906788359916185 L-26.102044293056824 -27.616721089283928 A38 38 0 0 1 -18.1990872761871 -33.358555459038165 L-18.1990872761871 -33.358555459038165 L-20.980240225561626 -41.91806410569455 L-7.6654489974295075 -46.24430202694381 L-4.8842960480549795 -37.684793380287424 A38 38 0 0 1 4.884296048054964 -37.684793380287424 L4.884296048054964 -37.684793380287424 L7.66544899742949 -46.24430202694381 L20.980240225561612 -41.91806410569455 L18.199087276187086 -33.358555459038165 A38 38 0 0 1 26.102044293056824 -27.616721089283928 L26.102044293056824 -27.616721089283928 L33.38319724243135 -32.90678835991619 L41.612190774525956 -21.58055043866695 L34.331037825151434 -16.29048316803469 A38 38 0 0 1 37.3496987939662 -6.999999999999995 M0 -20A20 20 0 1 0 0 20 A20 20 0 1 0 0 -20" fill="#5699d2"></path></g></g> <g transform="translate(28 4) scale(0.3)"> <g transform="rotate(300.731)">
<animateTransform attributeName="transform" type="rotate" values="0;360" keyTimes="0;1" dur="2.8s" begin="-0.13999999999999999s" repeatCount="indefinite"></animateTransform><path d="M37.3496987939662 -7 L46.3496987939662 -7 L46.3496987939662 7 L37.3496987939662 7 A38 38 0 0 1 34.33103782515145 16.29048316803467 L34.33103782515145 16.29048316803467 L41.61219077452598 21.580550438666926 L33.38319724243135 32.90678835991619 L26.10204429305682 27.616721089283935 A38 38 0 0 1 18.19908727618711 33.35855545903816 L18.19908727618711 33.35855545903816 L20.980240225561637 41.91806410569454 L7.665448997429484 46.24430202694381 L4.884296048054957 37.684793380287424 A38 38 0 0 1 -4.884296048054953 37.684793380287424 L-4.884296048054953 37.684793380287424 L-7.665448997429479 46.24430202694381 L-20.980240225561634 41.91806410569454 L-18.199087276187107 33.35855545903816 A38 38 0 0 1 -26.102044293056814 27.61672108928394 L-26.102044293056814 27.61672108928394 L-33.383197242431336 32.9067883599162 L-41.61219077452597 21.58055043866693 L-34.33103782515144 16.29048316803467 A38 38 0 0 1 -37.3496987939662 7.000000000000007 L-37.3496987939662 7.000000000000007 L-46.3496987939662 7.000000000000008 L-46.3496987939662 -6.9999999999999964 L-37.3496987939662 -6.999999999999997 A38 38 0 0 1 -34.33103782515145 -16.290483168034662 L-34.33103782515145 -16.290483168034662 L-41.61219077452598 -21.58055043866692 L-33.38319724243135 -32.906788359916185 L-26.102044293056824 -27.616721089283928 A38 38 0 0 1 -18.1990872761871 -33.358555459038165 L-18.1990872761871 -33.358555459038165 L-20.980240225561626 -41.91806410569455 L-7.6654489974295075 -46.24430202694381 L-4.8842960480549795 -37.684793380287424 A38 38 0 0 1 4.884296048054964 -37.684793380287424 L4.884296048054964 -37.684793380287424 L7.66544899742949 -46.24430202694381 L20.980240225561612 -41.91806410569455 L18.199087276187086 -33.358555459038165 A38 38 0 0 1 26.102044293056824 -27.616721089283928 L26.102044293056824 -27.616721089283928 L33.38319724243135 -32.90678835991619 L41.612190774525956 -21.58055043866695 L34.331037825151434 -16.29048316803469 A38 38 0 0 1 37.3496987939662 -6.999999999999995 M0 -20A20 20 0 1 0 0 20 A20 20 0 1 0 0 -20" fill="#d8ebf9"></path></g></g></g></svg>